<svg width="16" height="16" viewBox="0 0 16 16" fill="none" xmlns="http://www.w3.org/2000/svg">
<path d="M7.72668 1.39229C9.78967 1.39229 10.0332 1.39956 10.8475 1.43773C11.6 1.47227 12.009 1.59768 12.2816 1.7031C12.6415 1.84306 12.8996 2.01028 13.1704 2.28111C13.4413 2.55193 13.6085 2.80821 13.7484 3.16992C13.8539 3.44256 13.9793 3.85152 14.0138 4.60401C14.0502 5.41831 14.0592 5.66368 14.0592 7.72486C14.0592 9.78603 14.052 10.0314 14.0138 10.8457C13.9793 11.5982 13.8539 12.0072 13.7484 12.2798C13.6085 12.6397 13.4413 12.8978 13.1704 13.1686C12.8996 13.4394 12.6433 13.6067 12.2816 13.7466C12.009 13.852 11.6 13.9774 10.8475 14.012C10.0332 14.0483 9.78967 14.0574 7.72668 14.0574C5.66368 14.0574 5.42012 14.0502 4.60583 14.012C3.85334 13.9774 3.44438 13.852 3.17174 13.7466C2.81185 13.6067 2.55375 13.4394 2.28292 13.1686C2.0121 12.8978 1.84488 12.6415 1.70492 12.2798C1.5995 12.0072 1.47408 11.5982 1.43955 10.8457C1.4032 10.0314 1.39411 9.78603 1.39411 7.72486C1.39411 5.66368 1.40138 5.41831 1.43955 4.60401C1.47408 3.85152 1.5995 3.44256 1.70492 3.16992C1.84488 2.81003 2.0121 2.55193 2.28292 2.28111C2.55375 2.01028 2.81003 1.84306 3.17174 1.7031C3.44438 1.59768 3.85334 1.47227 4.60583 1.43773C5.42012 1.40138 5.6655 1.39229 7.72668 1.39229ZM7.72668 0C5.62915 0 5.3656 0.00908807 4.54222 0.0472579C3.72066 0.0854278 3.15901 0.214478 2.66644 0.407145C2.15933 0.605265 1.72855 0.868819 1.29778 1.29778C0.868819 1.72673 0.603448 2.15751 0.407146 2.66644C0.216296 3.15719 0.0854279 3.71884 0.047258 4.54222C0.00908807 5.3656 0 5.62915 0 7.72668C0 9.8242 0.00908807 10.0878 0.047258 10.9111C0.0854279 11.7327 0.214478 12.2943 0.407146 12.7869C0.605265 13.294 0.868819 13.7248 1.29778 14.1556C1.72673 14.5845 2.15751 14.8499 2.66644 15.0462C3.1572 15.2371 3.71884 15.3679 4.54222 15.4061C5.3656 15.4443 5.62915 15.4534 7.72668 15.4534C9.8242 15.4534 10.0878 15.4443 10.9111 15.4061C11.7327 15.3679 12.2943 15.2389 12.7869 15.0462C13.294 14.8481 13.7248 14.5845 14.1556 14.1556C14.5845 13.7266 14.8499 13.2958 15.0462 12.7869C15.2371 12.2962 15.3679 11.7345 15.4061 10.9111C15.4443 10.0878 15.4534 9.8242 15.4534 7.72668C15.4534 5.62915 15.4443 5.3656 15.4061 4.54222C15.3679 3.72065 15.2389 3.15901 15.0462 2.66644C14.8481 2.15932 14.5845 1.72855 14.1556 1.29778C13.7266 0.868819 13.2958 0.603448 12.7869 0.407145C12.2962 0.216296 11.7345 0.0854278 10.9111 0.0472579C10.0878 0.00908807 9.8242 0 7.72668 0Z" fill="white"/>
<path d="M7.72678 3.75977C5.53655 3.75977 3.76074 5.53557 3.76074 7.7258C3.76074 9.91602 5.53655 11.6918 7.72678 11.6918C9.917 11.6918 11.6928 9.91602 11.6928 7.7258C11.6928 5.53557 9.917 3.75977 7.72678 3.75977ZM7.72678 10.3014C6.3054 10.3014 5.15122 9.14899 5.15122 7.7258C5.15122 6.30261 6.30358 5.15024 7.72678 5.15024C9.14997 5.15024 10.3023 6.30261 10.3023 7.7258C10.3023 9.14899 9.14997 10.3014 7.72678 10.3014Z" fill="white"/>
<path d="M11.8518 4.52779C12.3637 4.52779 12.7788 4.11277 12.7788 3.60081C12.7788 3.08885 12.3637 2.67383 11.8518 2.67383C11.3398 2.67383 10.9248 3.08885 10.9248 3.60081C10.9248 4.11277 11.3398 4.52779 11.8518 4.52779Z" fill="white"/>
</svg>
