<svg width="17" height="16" viewBox="0 0 17 16" fill="none" xmlns="http://www.w3.org/2000/svg">
<path d="M9.33584 6.48333C9.54942 6.24281 9.72452 6.00037 9.94388 5.79448C10.6173 5.15951 11.4139 4.8401 12.3452 4.84779C12.8571 4.85164 13.3612 4.8882 13.8538 5.03059C14.9813 5.35577 15.6355 6.13313 15.9492 7.23375C16.1839 8.05922 16.2263 8.90777 16.2282 9.75825C16.232 11.5516 16.2224 13.3468 16.2282 15.1401C16.2282 15.3075 16.182 15.3518 16.0165 15.3499C15.0929 15.3422 14.1674 15.3422 13.2438 15.3499C13.0803 15.3499 13.0456 15.3018 13.0456 15.1478C13.0514 13.4411 13.0514 11.7344 13.0456 10.0257C13.0456 9.59855 13.0168 9.16946 12.8975 8.75384C12.6762 7.98802 12.1278 7.59742 11.3254 7.63975C10.2287 7.69748 9.6591 8.24009 9.52056 9.35418C9.48785 9.61971 9.47053 9.88717 9.47246 10.1546C9.47246 11.8152 9.47246 13.4757 9.47631 15.1363C9.47631 15.3018 9.4359 15.3499 9.26657 15.3499C8.33528 15.3422 7.40398 15.3422 6.47269 15.3499C6.32261 15.3499 6.28027 15.3114 6.28027 15.1594C6.28412 11.8729 6.28412 8.58451 6.28027 5.29805C6.28027 5.13449 6.33415 5.09793 6.48808 5.09793C7.37127 5.10371 8.25639 5.10563 9.13958 5.09793C9.30313 5.09793 9.34354 5.14989 9.34161 5.30382C9.33199 5.69635 9.33777 6.08888 9.33777 6.48333H9.33584Z" fill="#FEFEFE"/>
<path d="M4.26933 10.239C4.26933 11.8649 4.26741 13.4908 4.27318 15.1168C4.27318 15.2976 4.22893 15.3515 4.04228 15.3496C3.11868 15.34 2.19509 15.3419 1.26956 15.3496C1.1214 15.3496 1.07715 15.313 1.07715 15.161C1.081 11.8688 1.081 8.57654 1.07715 5.28238C1.07715 5.14576 1.10986 5.09766 1.25417 5.09766C2.19124 5.10343 3.1283 5.10535 4.06537 5.09766C4.24624 5.09766 4.26933 5.165 4.26933 5.32086C4.26548 6.96024 4.26741 8.59963 4.26741 10.239H4.26933Z" fill="#FEFEFE"/>
<path d="M4.52356 1.83565C4.52356 2.85738 3.69617 3.68862 2.67637 3.68862C1.67196 3.69054 0.836869 2.85738 0.833021 1.85297C0.829173 0.835086 1.66426 0 2.68214 0C3.69233 0 4.52356 0.829314 4.52549 1.83565H4.52356Z" fill="#FEFEFE"/>
</svg>
