<svg width="19" height="15" viewBox="0 0 19 15" fill="none" xmlns="http://www.w3.org/2000/svg">
<path d="M6.36444 14.9994C13.055 14.9994 16.7139 9.40496 16.7139 4.55207C16.7139 4.39229 16.7098 4.23456 16.7037 4.07682C17.414 3.55855 18.0309 2.91123 18.5179 2.17582C17.8665 2.46875 17.1644 2.66541 16.4298 2.75349C17.1806 2.29873 17.7569 1.5797 18.0288 0.723431C17.3267 1.14337 16.5474 1.45065 15.7195 1.61453C15.0559 0.901651 14.1103 0.455078 13.0652 0.455078C11.0562 0.455078 9.42665 2.10002 9.42665 4.12599C9.42665 4.41482 9.45912 4.69342 9.52203 4.96382C6.49837 4.81018 3.81767 3.34961 2.0258 1.12699C1.71329 1.66984 1.53269 2.30077 1.53269 2.97268C1.53269 4.24685 2.17394 5.37147 3.15206 6.02904C2.55545 6.0106 1.99537 5.84468 1.50428 5.57018C1.50428 5.58452 1.50428 5.6009 1.50428 5.61729C1.50428 7.39539 2.75838 8.88055 4.4224 9.2165C4.11598 9.30049 3.79535 9.34556 3.46458 9.34556C3.23121 9.34556 3.0019 9.32302 2.7807 9.28001C3.24338 10.7385 4.58678 11.7997 6.17774 11.8304C4.93176 12.8157 3.36514 13.4016 1.66053 13.4016C1.36628 13.4016 1.07812 13.3852 0.791992 13.3504C2.40122 14.391 4.31282 14.9994 6.36647 14.9994" fill="white"/>
</svg>
