<svg width="16" height="16" viewBox="0 0 16 16" fill="none" xmlns="http://www.w3.org/2000/svg">
<path fill-rule="evenodd" clip-rule="evenodd" d="M13.799 2.65973C12.3796 1.23856 10.4894 0.455078 8.47799 0.455078C4.33219 0.455078 0.957576 3.82794 0.955819 7.97374C0.955819 9.29829 1.30189 10.593 1.96065 11.7331L0.892578 15.6312L4.88028 14.5859C5.97821 15.185 7.21669 15.5012 8.47448 15.5012H8.47799C12.6238 15.5012 15.9984 12.1283 16.0002 7.98077C16.0002 5.97111 15.2184 4.08266 13.799 2.66149V2.65973ZM8.47799 14.2293H8.47624C7.35371 14.2293 6.25402 13.9272 5.29486 13.358L5.06649 13.2227L2.70022 13.8429L3.33263 11.5363L3.18331 11.2992C2.55793 10.3049 2.22767 9.15424 2.22767 7.97374C2.22767 4.5271 5.03311 1.72341 8.48326 1.72341C10.1539 1.72341 11.7226 2.37515 12.9031 3.55565C14.0836 4.7379 14.7336 6.30663 14.7318 7.97725C14.7318 11.4239 11.9264 14.2276 8.47975 14.2276L8.47799 14.2293ZM11.9071 9.54774C11.7191 9.45288 10.7951 8.99965 10.6229 8.93641C10.4508 8.87317 10.326 8.84155 10.1996 9.03127C10.0748 9.21924 9.71471 9.6426 9.60404 9.76733C9.49512 9.89205 9.38445 9.90786 9.19648 9.81476C9.00852 9.7199 8.40246 9.52315 7.68572 8.88195C7.12709 8.38305 6.7494 7.76821 6.64049 7.58024C6.53157 7.39227 6.62819 7.29038 6.72305 7.19728C6.80737 7.11296 6.91102 6.97769 7.00413 6.86878C7.09723 6.75986 7.12885 6.68081 7.19209 6.55609C7.25533 6.43136 7.22371 6.32069 7.17628 6.22758C7.12885 6.13272 6.75292 5.2087 6.59657 4.83277C6.44374 4.46562 6.28915 4.51656 6.17321 4.50953C6.06429 4.50426 5.93781 4.50251 5.81309 4.50251C5.68836 4.50251 5.48458 4.54994 5.31243 4.7379C5.14027 4.92587 4.65542 5.38086 4.65542 6.30488C4.65542 7.2289 5.32824 8.12306 5.4231 8.24778C5.5162 8.37251 6.74765 10.2715 8.63434 11.0848C9.0823 11.2781 9.43364 11.394 9.70592 11.4801C10.1556 11.6224 10.5667 11.6031 10.8899 11.5539C11.2518 11.4994 12.0019 11.0989 12.1583 10.6597C12.3146 10.2206 12.3146 9.84462 12.2672 9.76557C12.2198 9.68652 12.095 9.64084 11.9071 9.54598V9.54774Z" fill="white"/>
</svg>
