<svg width="22" height="15" viewBox="0 0 22 15" fill="none" xmlns="http://www.w3.org/2000/svg">
<path d="M20.8285 2.56398C20.5944 1.69846 19.9013 1.01633 19.0195 0.783739C17.4242 0.363281 11.0292 0.363281 11.0292 0.363281C11.0292 0.363281 4.63426 0.363281 3.03893 0.783739C2.15945 1.01633 1.46632 1.69622 1.22997 2.56398C0.802734 4.13399 0.802734 7.40819 0.802734 7.40819C0.802734 7.40819 0.802734 10.6824 1.22997 12.2524C1.46405 13.1179 2.15718 13.8001 3.03893 14.0326C4.63426 14.4531 11.0292 14.4531 11.0292 14.4531C11.0292 14.4531 17.4242 14.4531 19.0195 14.0326C19.899 13.8001 20.5921 13.1202 20.8285 12.2524C21.2557 10.6824 21.2557 7.40819 21.2557 7.40819C21.2557 7.40819 21.2557 4.13399 20.8285 2.56398ZM8.98392 10.4274V4.38894L14.2971 7.40819L8.98392 10.4274Z" fill="white"/>
</svg>
